<svg width="41" height="40" viewBox="0 0 41 40" fill="none" xmlns="http://www.w3.org/2000/svg">
<circle cx="20.5" cy="20" r="20" fill="#696F8C"/>
<path d="M17.5 29C15.8333 29 14.4167 28.4167 13.25 27.25C12.0833 26.0833 11.5 24.6667 11.5 23V17C11.5 15.3333 12.0833 13.9167 13.25 12.75C14.4167 11.5833 15.8333 11 17.5 11H23.5C25.1667 11 26.5833 11.5833 27.75 12.75C28.9167 13.9167 29.5 15.3333 29.5 17V23C29.5 24.6667 28.9167 26.0833 27.75 27.25C26.5833 28.4167 25.1667 29 23.5 29H17.5ZM19.5 24L25.5 18L24.1 16.6L19.5 21.2L17.3 19L15.9 20.4L19.5 24ZM17.5 27H23.5C24.6 27 25.5417 26.6083 26.325 25.825C27.1083 25.0417 27.5 24.1 27.5 23V17C27.5 15.9 27.1083 14.9583 26.325 14.175C25.5417 13.3917 24.6 13 23.5 13H17.5C16.4 13 15.4583 13.3917 14.675 14.175C13.8917 14.9583 13.5 15.9 13.5 17V23C13.5 24.1 13.8917 25.0417 14.675 25.825C15.4583 26.6083 16.4 27 17.5 27Z" fill="white"/>
</svg>
