<svg width="41" height="40" viewBox="0 0 41 40" fill="none" xmlns="http://www.w3.org/2000/svg">
<circle cx="20.5" cy="20" r="20" fill="#696F8C"/>
<path d="M15.0999 11.5996C14.9962 11.5996 14.8943 11.6264 14.804 11.6775C14.7138 11.7286 14.6384 11.8023 14.5851 11.8912L10.9851 17.8912C10.9212 17.998 10.892 18.122 10.9017 18.246C10.9114 18.3701 10.9594 18.488 11.0391 18.5836L20.0391 29.3836C20.0954 29.4511 20.1659 29.5055 20.2455 29.5427C20.3251 29.58 20.412 29.5993 20.4999 29.5993C20.5878 29.5993 20.6747 29.58 20.7543 29.5427C20.8339 29.5055 20.9044 29.4511 20.9607 29.3836L29.9607 18.5836C30.0404 18.488 30.0884 18.3701 30.098 18.246C30.1077 18.122 30.0786 17.998 30.0147 17.8912L26.4147 11.8912C26.3614 11.8023 26.2859 11.7286 26.1957 11.6775C26.1055 11.6264 26.0036 11.5996 25.8999 11.5996H15.0999ZM12.5595 17.5996L15.4395 12.7996H17.8143L15.8943 17.5996H12.5595ZM15.8895 18.7996L18.6099 25.7944L12.7815 18.7996H15.8895ZM20.4999 27.3436L17.1771 18.7996H23.8227L20.4999 27.3436ZM17.1867 17.5996L19.1067 12.7996H21.8931L23.8131 17.5996H17.1867ZM25.1067 17.5996L23.1867 12.7996H25.5603L28.4403 17.5996H25.1067ZM25.1103 18.7996H28.2183L22.3899 25.7944L25.1103 18.7996Z" fill="white"/>
</svg>
