<svg width="41" height="40" viewBox="0 0 41 40" fill="none" xmlns="http://www.w3.org/2000/svg">
<circle cx="20.5" cy="20" r="20" fill="#696F8C"/>
<path d="M20.5 24C21.75 24 22.8127 23.5627 23.688 22.688C24.5633 21.8133 25.0007 20.7507 25 19.5C24.9993 18.2493 24.562 17.187 23.688 16.313C22.814 15.439 21.7513 15.0013 20.5 15C19.2487 14.9987 18.1863 15.4363 17.313 16.313C16.4397 17.1897 16.002 18.252 16 19.5C15.998 20.748 16.4357 21.8107 17.313 22.688C18.1903 23.5653 19.2527 24.0027 20.5 24ZM20.5 22.2C19.75 22.2 19.1127 21.9373 18.588 21.412C18.0633 20.8867 17.8007 20.2493 17.8 19.5C17.7993 18.7507 18.062 18.1133 18.588 17.588C19.114 17.0627 19.7513 16.8 20.5 16.8C21.2487 16.8 21.8863 17.0627 22.413 17.588C22.9397 18.1133 23.202 18.7507 23.2 19.5C23.198 20.2493 22.9357 20.887 22.413 21.413C21.8903 21.939 21.2527 22.2013 20.5 22.2ZM20.5 27C18.0667 27 15.85 26.321 13.85 24.963C11.85 23.605 10.4 21.784 9.5 19.5C10.4 17.2167 11.85 15.396 13.85 14.038C15.85 12.68 18.0667 12.0007 20.5 12C22.9333 11.9993 25.15 12.6787 27.15 14.038C29.15 15.3973 30.6 17.218 31.5 19.5C30.6 21.7833 29.15 23.6043 27.15 24.963C25.15 26.3217 22.9333 27.0007 20.5 27ZM20.5 25C22.3833 25 24.1127 24.5043 25.688 23.513C27.2633 22.5217 28.4673 21.184 29.3 19.5C28.4667 17.8167 27.2623 16.4793 25.687 15.488C24.1117 14.4967 22.3827 14.0007 20.5 14C18.6173 13.9993 16.8883 14.4953 15.313 15.488C13.7377 16.4807 12.5333 17.818 11.7 19.5C12.5333 21.1833 13.7377 22.521 15.313 23.513C16.8883 24.505 18.6173 25.0007 20.5 25Z" fill="white"/>
</svg>
