<svg width="41" height="40" viewBox="0 0 41 40" fill="none" xmlns="http://www.w3.org/2000/svg">
<circle cx="20.5" cy="20" r="20" fill="#696F8C"/>
<path d="M25.5001 22.5H23.8334V24.1667H25.5001M25.5001 19.1667H23.8334V20.8333H25.5001M27.1667 25.8333H20.5001V24.1667H22.1667V22.5H20.5001V20.8333H22.1667V19.1667H20.5001V17.5H27.1667M18.8334 15.8333H17.1667V14.1667H18.8334M18.8334 19.1667H17.1667V17.5H18.8334M18.8334 22.5H17.1667V20.8333H18.8334M18.8334 25.8333H17.1667V24.1667H18.8334M15.5001 15.8333H13.8334V14.1667H15.5001M15.5001 19.1667H13.8334V17.5H15.5001M15.5001 22.5H13.8334V20.8333H15.5001M15.5001 25.8333H13.8334V24.1667H15.5001M20.5001 15.8333V12.5H12.1667V27.5H28.8334V15.8333H20.5001Z" fill="white"/>
</svg>
