<svg width="41" height="40" viewBox="0 0 41 40" fill="none" xmlns="http://www.w3.org/2000/svg">
<circle cx="20.5" cy="20" r="20" fill="#696F8C"/>
<path d="M19.6726 27.5007H18.5042C15.5167 27.5007 14.0234 27.5007 13.0951 26.5548C12.1667 25.609 12.1667 24.0865 12.1667 21.0423C12.1667 17.9982 12.1667 16.4757 13.0951 15.5298C14.0234 14.584 15.5167 14.584 18.5042 14.584H21.6734C24.6609 14.584 26.1551 14.584 27.0834 15.5298C27.7976 16.2573 27.9617 17.3265 28.0001 19.1673" stroke="white" stroke-width="1.5" stroke-linecap="round" stroke-linejoin="round"/>
<path d="M27.181 26.6862L28.8335 28.3337M23.8335 14.5837L23.7502 14.3253C23.3377 13.042 23.1318 12.4003 22.641 12.0337C22.1493 11.667 21.4977 11.667 20.1918 11.667H19.9727C18.6685 11.667 18.016 11.667 17.5252 12.0337C17.0335 12.4003 16.8277 13.042 16.4152 14.3253L16.3335 14.5837M28.0443 24.6053C28.0509 24.2152 27.9797 23.8277 27.835 23.4654C27.6903 23.1031 27.4748 22.7733 27.2013 22.4951C26.9278 22.2169 26.6016 21.996 26.2418 21.8452C25.882 21.6943 25.4957 21.6167 25.1056 21.6167C24.7154 21.6167 24.3292 21.6943 23.9694 21.8452C23.6096 21.996 23.2834 22.2169 23.0099 22.4951C22.7363 22.7733 22.5209 23.1031 22.3762 23.4654C22.2314 23.8277 22.1603 24.2152 22.1668 24.6053C22.1798 25.3762 22.4951 26.111 23.0448 26.6516C23.5946 27.1921 24.3346 27.495 25.1056 27.495C25.8765 27.495 26.6166 27.1921 27.1663 26.6516C27.716 26.111 28.0313 25.3762 28.0443 24.6053Z" stroke="white" stroke-width="1.5" stroke-linecap="round" stroke-linejoin="round"/>
</svg>
