<svg width="134" height="36" viewBox="0 0 134 36" fill="none" xmlns="http://www.w3.org/2000/svg">
<path d="M13.3113 13.472C13.2487 13.2213 13.2173 12.9289 13.2173 12.5947C13.2173 12.2396 13.2904 11.7696 13.4367 11.1847C13.6247 11.1847 13.9798 11.1324 14.502 11.028C15.0451 10.9236 15.6091 10.4849 16.194 9.712C16.7998 8.93911 17.1027 7.97822 17.1027 6.82933C17.1027 4.824 15.3793 3.82133 11.9327 3.82133C10.5749 3.82133 9.22756 3.99889 7.89067 4.354C6.57467 4.68822 5.45711 5.18956 4.538 5.858C3.61889 6.50555 3.15933 7.23667 3.15933 8.05133C3.15933 8.97044 3.786 9.55533 5.03933 9.806C5.06022 9.95222 5.07067 10.1507 5.07067 10.4013C5.07067 11.3622 4.88267 12.2291 4.50667 13.002C3.58756 12.9184 2.72067 12.5111 1.906 11.78C1.07044 11.0489 0.652667 9.96267 0.652667 8.52133C0.652667 7.05911 1.26889 5.75356 2.50133 4.60467C4.84089 2.45311 8.31889 1.37733 12.9353 1.37733C19.7033 1.37733 23.0873 3.06933 23.0873 6.45333C23.0873 9.25244 21.3222 11.2056 17.792 12.3127C19.0453 12.438 20.142 12.8976 21.082 13.6913C23.0873 13.1273 24.9673 12.7722 26.722 12.626C27.0144 13.2109 27.1607 13.7749 27.1607 14.318C27.1607 14.8402 27.098 15.3416 26.9727 15.822C26.4922 15.7593 25.9073 15.728 25.218 15.728C24.5496 15.728 23.6931 15.8116 22.6487 15.9787C22.8784 16.6053 22.9933 17.2738 22.9933 17.984C22.9933 20.052 22.3458 21.838 21.0507 23.342C19.7556 24.846 18.1158 25.598 16.1313 25.598C14.6273 25.598 13.4784 25.222 12.6847 24.47C11.9118 23.7389 11.5253 22.778 11.5253 21.5873C11.5253 20.3758 11.9536 19.1851 12.81 18.0153C13.6873 16.8247 14.8884 15.8951 16.4133 15.2267C16.0582 14.0569 15.1809 13.472 13.7813 13.472H13.3113ZM7.264 8.74067C7.264 8.36467 7.21178 8.08267 7.10733 7.89467C7.02378 7.70667 6.82533 7.43511 6.512 7.08V6.67267C6.92978 6.422 7.60867 6.20267 8.54867 6.01467C9.48867 5.80578 10.3138 5.70133 11.024 5.70133C12.1729 5.70133 12.9353 5.75355 13.3113 5.858C13.4367 6.06689 13.4993 6.49511 13.4993 7.14267C13.4993 7.79022 12.9562 10.182 11.87 14.318C10.8047 18.454 10.178 21.5664 9.99 23.6553C8.486 24.0104 6.794 24.188 4.914 24.188C4.41267 24.188 4.068 24.1567 3.88 24.094C3.98444 22.7989 4.56933 20.2296 5.63467 16.386C6.72089 12.5216 7.264 9.97311 7.264 8.74067ZM15.0973 22.7467C15.6404 22.7467 16.0896 22.3289 16.4447 21.4933C16.7998 20.6369 16.9773 19.6029 16.9773 18.3913C16.9773 18.0571 16.9669 17.7542 16.946 17.4827C16.0896 17.7542 15.3584 18.2556 14.7527 18.9867C14.1678 19.6969 13.8753 20.3653 13.8753 20.992C13.8753 22.1618 14.2827 22.7467 15.0973 22.7467ZM33.523 22.2453C32.8546 22.8302 31.9773 23.3316 30.891 23.7493C29.8048 24.1671 28.8126 24.376 27.9144 24.376C27.037 24.376 26.3164 24.1253 25.7524 23.624C25.1884 23.1018 24.9064 22.3602 24.9064 21.3993C24.9064 20.4384 25.4286 17.7647 26.473 13.378C27.5384 8.97044 28.071 5.70133 28.071 3.57067C28.071 3.11111 28.0084 2.52622 27.883 1.816C29.8466 1.27289 31.7475 1.00133 33.5857 1.00133C33.7737 1.33556 33.8677 1.87867 33.8677 2.63067C33.8677 4.05111 33.335 7.15311 32.2697 11.9367C31.2253 16.6993 30.703 19.4462 30.703 20.1773C30.703 20.9084 30.8284 21.274 31.079 21.274C31.2879 21.274 31.737 21.1382 32.4264 20.8667L32.771 20.71L33.523 22.2453ZM39.3158 24.376C37.6865 24.376 36.4018 23.8642 35.4618 22.8407C34.5218 21.7962 34.0518 20.334 34.0518 18.454C34.0518 16.1562 34.7307 14.2136 36.0885 12.626C37.4462 11.0176 39.2322 10.2133 41.4465 10.2133L42.8565 10.3387C43.3578 10.1924 43.8278 10.1193 44.2665 10.1193C45.3109 10.1193 46.0525 10.4744 46.4911 11.1847C46.9507 11.8949 47.2118 12.908 47.2745 14.224C48.1518 14.1822 48.9874 14.0464 49.7811 13.8167L50.2198 13.6913C50.366 13.8376 50.4705 14.2762 50.5331 15.0073L50.5645 15.352C49.6245 15.8324 48.4756 16.2084 47.1178 16.48C46.6582 18.6942 45.7496 20.5638 44.3918 22.0887C43.034 23.6136 41.342 24.376 39.3158 24.376ZM39.9425 18.3287C39.9425 20.2713 40.4334 21.2427 41.4151 21.2427C42.1045 21.2427 42.8042 20.804 43.5145 19.9267C44.2456 19.0493 44.7469 17.984 45.0185 16.7307C42.8878 16.7307 41.8225 15.7071 41.8225 13.66C41.8225 13.3049 41.8538 12.9393 41.9165 12.5633C41.7076 12.5633 41.5509 12.5947 41.4465 12.6573C41.0914 13.0333 40.7467 13.7958 40.4125 14.9447C40.0991 16.0727 39.9425 17.2007 39.9425 18.3287ZM56.5508 12.2187C55.9033 12.2187 55.3497 12.7931 54.8902 13.942C54.4306 15.0909 54.2008 16.2502 54.2008 17.42C54.2008 19.9893 54.9424 21.274 56.4255 21.274C57.3655 21.274 58.4308 20.8249 59.6215 19.9267L60.6242 21.3053C59.7468 22.2662 58.692 23.0182 57.4595 23.5613C56.248 24.1044 55.0364 24.376 53.8248 24.376C52.1955 24.376 50.8691 23.8851 49.8455 22.9033C48.8428 21.9007 48.3415 20.3967 48.3415 18.3913C48.3415 15.9682 49.0831 13.9838 50.5662 12.438C52.0702 10.8922 54.0337 10.1193 56.4568 10.1193C58.0235 10.1193 59.256 10.4431 60.1542 11.0907C61.0524 11.7173 61.5015 12.5216 61.5015 13.5033C61.5015 14.4642 61.2091 15.2998 60.6242 16.01C59.9348 16.01 59.1828 15.8847 58.3682 15.634C57.5744 15.3624 56.9373 15.0282 56.4568 14.6313L56.9268 12.2813C56.8015 12.2396 56.6762 12.2187 56.5508 12.2187ZM65.4755 3.28867C65.4755 2.74556 65.4232 2.26511 65.3188 1.84733C67.3868 1.28333 69.2668 1.00133 70.9588 1.00133C71.1677 1.252 71.2721 1.80555 71.2721 2.662C71.2721 4.18689 70.8021 7.11133 69.8621 11.4353C71.5332 10.558 73.0059 10.1193 74.2801 10.1193C75.5752 10.1193 76.557 10.3804 77.2255 10.9027C77.9148 11.4249 78.2595 12.156 78.2595 13.096C78.2595 14.9133 76.9121 16.2084 74.2175 16.9813C74.8859 19.864 75.5335 21.3053 76.1601 21.3053L77.6641 20.898L78.3535 22.4333C77.8312 22.8511 77.027 23.2793 75.9408 23.718C74.8546 24.1567 73.8101 24.376 72.8075 24.376C71.8048 24.376 71.0423 24 70.5201 23.248C69.9979 22.496 69.6637 21.5142 69.5175 20.3027C69.3712 19.0911 69.2981 17.7333 69.2981 16.2293C70.3008 15.9787 71.0946 15.6236 71.6795 15.164C72.2643 14.6836 72.5568 14.2136 72.5568 13.754C72.5568 13.2736 72.3061 13.0333 71.8048 13.0333C71.4079 13.0333 70.9379 13.1482 70.3948 13.378C69.8726 13.6078 69.4861 13.8271 69.2355 14.036C68.1075 18.7987 67.5435 21.9842 67.5435 23.5927C65.935 23.9478 64.0237 24.1253 61.8095 24.1253C61.7886 23.9582 61.7781 23.7598 61.7781 23.53C61.7781 22.4438 62.3943 19.2687 63.6268 14.0047C64.8592 8.71978 65.4755 5.14778 65.4755 3.28867ZM99.4435 35.8753C97.835 35.8753 96.1326 35.1547 94.3361 33.7133C93.5215 33.0658 92.6441 32.2929 91.7041 31.3947C90.7641 30.4964 90.1584 29.922 89.8868 29.6713C88.4873 30.9038 86.931 31.52 85.2181 31.52C84.111 31.52 83.1919 31.238 82.4608 30.674C81.7506 30.11 81.3955 29.3789 81.3955 28.4807C81.3955 27.5824 81.761 26.82 82.4921 26.1933C83.2441 25.5876 84.2573 25.2847 85.5315 25.2847C86.2835 25.2847 87.0668 25.3996 87.8815 25.6293C88.1948 24.6893 88.4246 23.5196 88.5708 22.12C87.7979 22.5378 86.9206 22.7467 85.9388 22.7467C83.9961 22.7467 82.419 22.0156 81.2075 20.5533C79.9959 19.0702 79.3901 17.1067 79.3901 14.6627C79.3901 13.0333 79.6721 11.4353 80.2361 9.86867C80.821 8.302 81.6044 6.92333 82.5861 5.73267C83.5679 4.542 84.7586 3.59156 86.1581 2.88133C87.5786 2.15022 89.0617 1.78467 90.6075 1.78467C91.3386 1.78467 91.9966 1.87867 92.5815 2.06667C94.0228 1.10578 95.5164 0.625333 97.0621 0.625333C97.835 0.625333 98.5453 0.740222 99.1928 0.97C99.8613 1.17889 100.352 1.44 100.665 1.75333C100.498 2.54711 100.269 3.226 99.9761 3.79L99.8508 4.072C98.869 3.34089 97.8141 2.97533 96.6861 2.97533C96.0177 2.97533 95.3701 3.10067 94.7435 3.35133C95.7253 4.354 96.2161 5.80578 96.2161 7.70667C96.2161 9.58667 95.7253 11.3204 94.7435 12.908C93.7617 14.4956 92.4979 15.2893 90.9521 15.2893C89.9077 15.2893 89.0826 14.8924 88.4768 14.0987C87.871 13.284 87.5681 12.1978 87.5681 10.84C87.5681 8.52133 88.4559 6.30711 90.2315 4.19733C88.8528 4.34356 87.7248 5.30444 86.8475 7.08C85.991 8.83467 85.5628 10.8713 85.5628 13.19C85.5628 15.5087 85.8553 17.1067 86.4401 17.984C87.0459 18.8613 87.7353 19.3 88.5081 19.3C89.3019 19.3 90.0644 19.0284 90.7955 18.4853C91.5475 17.9213 92.1741 17.1798 92.6755 16.2607L94.9628 16.7307C94.3779 21.18 93.323 24.6893 91.7981 27.2587C92.1533 27.4467 92.7695 27.7704 93.6468 28.23C94.5241 28.7104 95.1926 29.0656 95.6521 29.2953C96.1326 29.5251 96.7384 29.7967 97.4695 30.11C98.8273 30.6949 100.143 30.9873 101.417 30.9873L103.078 30.8933C103.705 31.6036 104.164 32.2929 104.457 32.9613C104.06 33.7133 103.402 34.3818 102.483 34.9667C101.564 35.5724 100.551 35.8753 99.4435 35.8753ZM90.9208 12.9393C91.6101 12.9393 92.1637 12.4171 92.5815 11.3727C92.9993 10.3282 93.2081 9.148 93.2081 7.832C93.2081 6.516 92.9261 5.54467 92.3621 4.918C91.5684 5.69089 90.9313 6.61 90.4508 7.67533C89.9913 8.71978 89.7615 9.73289 89.7615 10.7147C89.7615 12.1978 90.1479 12.9393 90.9208 12.9393ZM84.8735 28.9193C85.7299 28.9193 86.4506 28.4493 87.0355 27.5093C86.4715 27.196 85.9284 27.0393 85.4061 27.0393C84.9048 27.0393 84.5079 27.1438 84.2155 27.3527C83.9439 27.5616 83.8081 27.8018 83.8081 28.0733C83.8081 28.3449 83.9126 28.5538 84.1215 28.7C84.3513 28.8462 84.6019 28.9193 84.8735 28.9193ZM105.041 12.25C105.041 13.1691 104.78 14.6 104.257 16.5427C103.735 18.4644 103.474 19.7178 103.474 20.3027C103.474 20.8876 103.589 21.18 103.819 21.18C104.048 21.18 104.466 21.0756 105.072 20.8667L105.354 20.7413L105.918 22.308C105.208 22.8511 104.32 23.3316 103.255 23.7493C102.21 24.1671 101.26 24.376 100.403 24.376C99.5469 24.376 98.868 24.1358 98.3666 23.6553C97.8862 23.1749 97.646 22.4856 97.646 21.5873C97.646 20.6682 97.8966 19.2791 98.398 17.42C98.9202 15.54 99.1813 14.3493 99.1813 13.848C99.1813 13.0751 98.9098 12.344 98.3666 11.6547L98.116 11.31L98.21 10.7773C99.2962 10.4431 101.406 10.276 104.539 10.276C104.874 10.652 105.041 11.31 105.041 12.25ZM102.691 7.832C101.751 7.832 101.009 7.58133 100.466 7.08C99.9438 6.57867 99.6826 5.94156 99.6826 5.16867C99.6826 4.37489 100.006 3.71689 100.654 3.19467C101.322 2.65155 102.127 2.38 103.067 2.38C104.007 2.38 104.738 2.59933 105.26 3.038C105.782 3.47667 106.043 4.09289 106.043 4.88667C106.043 5.68044 105.72 6.36978 105.072 6.95467C104.445 7.53956 103.652 7.832 102.691 7.832ZM114.811 22.6527C113.348 23.4464 112.043 23.8433 110.894 23.8433C109.766 23.8433 108.815 23.3942 108.043 22.496C107.291 21.5769 106.915 20.2191 106.915 18.4227C106.915 16.0204 107.562 14.036 108.857 12.4693C110.173 10.9027 111.74 10.1193 113.557 10.1193C114.435 10.1193 115.427 10.3596 116.534 10.84C117.829 10.4431 119.302 10.2447 120.952 10.2447H121.485C121.589 10.4536 121.641 10.9236 121.641 11.6547C121.641 12.3649 121.505 13.7749 121.234 15.8847C120.983 17.9944 120.701 19.7596 120.388 21.18C119.719 24.2089 118.675 26.6007 117.255 28.3553C115.855 30.1309 114.09 31.0187 111.959 31.0187C110.915 31.0187 110.058 30.7889 109.39 30.3293C108.742 29.8698 108.419 29.2849 108.419 28.5747C108.419 27.8644 108.586 27.2691 108.92 26.7887C109.275 26.3291 109.776 25.9427 110.424 25.6293C111.531 25.0862 112.889 24.6371 114.497 24.282L114.811 22.6527ZM114.999 12.6573C114.267 12.6573 113.703 13.284 113.307 14.5373C112.931 15.7907 112.743 17.1484 112.743 18.6107C112.743 20.0729 113.087 20.804 113.777 20.804C114.069 20.804 114.497 20.6578 115.061 20.3653C115.228 18.6733 115.5 16.1667 115.876 12.8453C115.563 12.72 115.27 12.6573 114.999 12.6573ZM111.427 28.7C111.823 28.7 112.273 28.5016 112.774 28.1047C113.296 27.7078 113.724 27.0602 114.059 26.162C111.782 26.5589 110.643 27.1647 110.643 27.9793C110.685 28.4598 110.946 28.7 111.427 28.7ZM133.295 19.77C133.295 21.0651 132.689 22.1618 131.478 23.06C130.287 23.9373 128.887 24.376 127.279 24.376C125.671 24.376 124.344 24.1044 123.3 23.5613C122.276 23.0182 121.764 22.5064 121.764 22.026C121.764 21.5247 122.078 20.898 122.704 20.146C123.352 19.3731 124.01 18.924 124.678 18.7987C125.639 19.3209 126.506 20.4802 127.279 22.2767C127.885 22.2767 128.188 22.0782 128.188 21.6813C128.188 21.3889 128.104 21.1173 127.937 20.8667C127.77 20.616 127.645 20.4176 127.561 20.2713C127.477 20.1251 127.331 19.9267 127.122 19.676C126.913 19.4044 126.757 19.206 126.652 19.0807C126.13 18.454 125.66 17.8796 125.242 17.3573C124.24 16.104 123.738 15.0073 123.738 14.0673C123.738 13.1064 124.041 12.3231 124.647 11.7173C125.691 10.652 127.227 10.1193 129.253 10.1193C130.527 10.1193 131.54 10.37 132.292 10.8713C133.044 11.3518 133.42 12.0829 133.42 13.0647C133.42 14.0256 132.846 15.1327 131.697 16.386C132.762 17.6184 133.295 18.7464 133.295 19.77ZM131.196 14.036C131.446 13.6391 131.572 13.284 131.572 12.9707C131.572 12.6573 131.436 12.4171 131.164 12.25C130.893 12.0829 130.569 11.9993 130.193 11.9993C129.817 11.9993 129.525 12.0933 129.316 12.2813C129.128 12.4484 129.034 12.6782 129.034 12.9707C129.034 13.2631 129.483 13.9107 130.381 14.9133C130.673 14.7044 130.945 14.412 131.196 14.036Z" fill="#2F66F6"/>
</svg>
