<svg width="134" height="36" viewBox="0 0 134 36" fill="none" xmlns="http://www.w3.org/2000/svg">
<path d="M13.3113 13.1722C13.2487 12.9215 13.2173 12.6291 13.2173 12.2949C13.2173 11.9398 13.2904 11.4698 13.4367 10.8849C13.6247 10.8849 13.9798 10.8326 14.502 10.7282C15.0451 10.6238 15.6091 10.1851 16.194 9.41219C16.7998 8.63931 17.1027 7.67842 17.1027 6.52953C17.1027 4.52419 15.3793 3.52153 11.9327 3.52153C10.5749 3.52153 9.22756 3.69908 7.89067 4.0542C6.57467 4.38842 5.45711 4.88975 4.538 5.55819C3.61889 6.20575 3.15933 6.93686 3.15933 7.75153C3.15933 8.67064 3.786 9.25553 5.03933 9.5062C5.06022 9.65242 5.07067 9.85086 5.07067 10.1015C5.07067 11.0624 4.88267 11.9293 4.50667 12.7022C3.58756 12.6186 2.72067 12.2113 1.906 11.4802C1.07044 10.7491 0.652667 9.66286 0.652667 8.22153C0.652667 6.75931 1.26889 5.45375 2.50133 4.30486C4.84089 2.15331 8.31889 1.07753 12.9353 1.07753C19.7033 1.07753 23.0873 2.76953 23.0873 6.15353C23.0873 8.95264 21.3222 10.9058 17.792 12.0129C19.0453 12.1382 20.142 12.5978 21.082 13.3915C23.0873 12.8275 24.9673 12.4724 26.722 12.3262C27.0144 12.9111 27.1607 13.4751 27.1607 14.0182C27.1607 14.5404 27.098 15.0418 26.9727 15.5222C26.4922 15.4595 25.9073 15.4282 25.218 15.4282C24.5496 15.4282 23.6931 15.5118 22.6487 15.6789C22.8784 16.3055 22.9933 16.974 22.9933 17.6842C22.9933 19.7522 22.3458 21.5382 21.0507 23.0422C19.7556 24.5462 18.1158 25.2982 16.1313 25.2982C14.6273 25.2982 13.4784 24.9222 12.6847 24.1702C11.9118 23.4391 11.5253 22.4782 11.5253 21.2875C11.5253 20.076 11.9536 18.8853 12.81 17.7155C13.6873 16.5249 14.8884 15.5953 16.4133 14.9269C16.0582 13.7571 15.1809 13.1722 13.7813 13.1722H13.3113ZM7.264 8.44086C7.264 8.06486 7.21178 7.78286 7.10733 7.59486C7.02378 7.40686 6.82533 7.13531 6.512 6.7802V6.37286C6.92978 6.1222 7.60867 5.90286 8.54867 5.71486C9.48867 5.50597 10.3138 5.40153 11.024 5.40153C12.1729 5.40153 12.9353 5.45375 13.3113 5.55819C13.4367 5.76708 13.4993 6.19531 13.4993 6.84286C13.4993 7.49042 12.9562 9.8822 11.87 14.0182C10.8047 18.1542 10.178 21.2666 9.99 23.3555C8.486 23.7106 6.794 23.8882 4.914 23.8882C4.41267 23.8882 4.068 23.8569 3.88 23.7942C3.98444 22.4991 4.56933 19.9298 5.63467 16.0862C6.72089 12.2218 7.264 9.67331 7.264 8.44086ZM15.0973 22.4469C15.6404 22.4469 16.0896 22.0291 16.4447 21.1935C16.7998 20.3371 16.9773 19.3031 16.9773 18.0915C16.9773 17.7573 16.9669 17.4544 16.946 17.1829C16.0896 17.4544 15.3584 17.9558 14.7527 18.6869C14.1678 19.3971 13.8753 20.0655 13.8753 20.6922C13.8753 21.862 14.2827 22.4469 15.0973 22.4469ZM33.523 21.9455C32.8546 22.5304 31.9773 23.0318 30.891 23.4495C29.8048 23.8673 28.8126 24.0762 27.9144 24.0762C27.037 24.0762 26.3164 23.8255 25.7524 23.3242C25.1884 22.802 24.9064 22.0604 24.9064 21.0995C24.9064 20.1386 25.4286 17.4649 26.473 13.0782C27.5384 8.67064 28.071 5.40153 28.071 3.27086C28.071 2.81131 28.0084 2.22642 27.883 1.5162C29.8466 0.973085 31.7475 0.701529 33.5857 0.701529C33.7737 1.03575 33.8677 1.57886 33.8677 2.33086C33.8677 3.75131 33.335 6.85331 32.2697 11.6369C31.2253 16.3995 30.703 19.1464 30.703 19.8775C30.703 20.6086 30.8284 20.9742 31.079 20.9742C31.2879 20.9742 31.737 20.8384 32.4264 20.5669L32.771 20.4102L33.523 21.9455ZM39.3158 24.0762C37.6865 24.0762 36.4018 23.5644 35.4618 22.5409C34.5218 21.4964 34.0518 20.0342 34.0518 18.1542C34.0518 15.8564 34.7307 13.9138 36.0885 12.3262C37.4462 10.7178 39.2322 9.91353 41.4465 9.91353L42.8565 10.0389C43.3578 9.89264 43.8278 9.81953 44.2665 9.81953C45.3109 9.81953 46.0525 10.1746 46.4911 10.8849C46.9507 11.5951 47.2118 12.6082 47.2745 13.9242C48.1518 13.8824 48.9874 13.7466 49.7811 13.5169L50.2198 13.3915C50.366 13.5378 50.4705 13.9764 50.5331 14.7075L50.5645 15.0522C49.6245 15.5326 48.4756 15.9086 47.1178 16.1802C46.6582 18.3944 45.7496 20.264 44.3918 21.7889C43.034 23.3138 41.342 24.0762 39.3158 24.0762ZM39.9425 18.0289C39.9425 19.9715 40.4334 20.9429 41.4151 20.9429C42.1045 20.9429 42.8042 20.5042 43.5145 19.6269C44.2456 18.7495 44.7469 17.6842 45.0185 16.4309C42.8878 16.4309 41.8225 15.4073 41.8225 13.3602C41.8225 13.0051 41.8538 12.6395 41.9165 12.2635C41.7076 12.2635 41.5509 12.2949 41.4465 12.3575C41.0914 12.7335 40.7467 13.496 40.4125 14.6449C40.0991 15.7729 39.9425 16.9009 39.9425 18.0289ZM56.5508 11.9189C55.9033 11.9189 55.3497 12.4933 54.8902 13.6422C54.4306 14.7911 54.2008 15.9504 54.2008 17.1202C54.2008 19.6895 54.9424 20.9742 56.4255 20.9742C57.3655 20.9742 58.4308 20.5251 59.6215 19.6269L60.6242 21.0055C59.7468 21.9664 58.692 22.7184 57.4595 23.2615C56.248 23.8046 55.0364 24.0762 53.8248 24.0762C52.1955 24.0762 50.8691 23.5853 49.8455 22.6035C48.8428 21.6009 48.3415 20.0969 48.3415 18.0915C48.3415 15.6684 49.0831 13.684 50.5662 12.1382C52.0702 10.5924 54.0337 9.81953 56.4568 9.81953C58.0235 9.81953 59.256 10.1433 60.1542 10.7909C61.0524 11.4175 61.5015 12.2218 61.5015 13.2035C61.5015 14.1644 61.2091 15 60.6242 15.7102C59.9348 15.7102 59.1828 15.5849 58.3682 15.3342C57.5744 15.0626 56.9373 14.7284 56.4568 14.3315L56.9268 11.9815C56.8015 11.9398 56.6762 11.9189 56.5508 11.9189ZM65.4755 2.98886C65.4755 2.44575 65.4232 1.96531 65.3188 1.54753C67.3868 0.983529 69.2668 0.701529 70.9588 0.701529C71.1677 0.952195 71.2721 1.50575 71.2721 2.36219C71.2721 3.88708 70.8021 6.81153 69.8621 11.1355C71.5332 10.2582 73.0059 9.81953 74.2801 9.81953C75.5752 9.81953 76.557 10.0806 77.2255 10.6029C77.9148 11.1251 78.2595 11.8562 78.2595 12.7962C78.2595 14.6135 76.9121 15.9086 74.2175 16.6815C74.8859 19.5642 75.5335 21.0055 76.1601 21.0055L77.6641 20.5982L78.3535 22.1335C77.8312 22.5513 77.027 22.9795 75.9408 23.4182C74.8546 23.8569 73.8101 24.0762 72.8075 24.0762C71.8048 24.0762 71.0423 23.7002 70.5201 22.9482C69.9979 22.1962 69.6637 21.2144 69.5175 20.0029C69.3712 18.7913 69.2981 17.4335 69.2981 15.9295C70.3008 15.6789 71.0946 15.3238 71.6795 14.8642C72.2643 14.3838 72.5568 13.9138 72.5568 13.4542C72.5568 12.9738 72.3061 12.7335 71.8048 12.7335C71.4079 12.7335 70.9379 12.8484 70.3948 13.0782C69.8726 13.308 69.4861 13.5273 69.2355 13.7362C68.1075 18.4989 67.5435 21.6844 67.5435 23.2929C65.935 23.648 64.0237 23.8255 61.8095 23.8255C61.7886 23.6584 61.7781 23.46 61.7781 23.2302C61.7781 22.144 62.3943 18.9689 63.6268 13.7049C64.8592 8.41997 65.4755 4.84797 65.4755 2.98886ZM99.4435 35.5755C97.835 35.5755 96.1326 34.8549 94.3361 33.4135C93.5215 32.766 92.6441 31.9931 91.7041 31.0949C90.7641 30.1966 90.1584 29.6222 89.8868 29.3715C88.4873 30.604 86.931 31.2202 85.2181 31.2202C84.111 31.2202 83.1919 30.9382 82.4608 30.3742C81.7506 29.8102 81.3955 29.0791 81.3955 28.1809C81.3955 27.2826 81.761 26.5202 82.4921 25.8935C83.2441 25.2878 84.2573 24.9849 85.5315 24.9849C86.2835 24.9849 87.0668 25.0998 87.8815 25.3295C88.1948 24.3895 88.4246 23.2198 88.5708 21.8202C87.7979 22.238 86.9206 22.4469 85.9388 22.4469C83.9961 22.4469 82.419 21.7158 81.2075 20.2535C79.9959 18.7704 79.3901 16.8069 79.3901 14.3629C79.3901 12.7335 79.6721 11.1355 80.2361 9.56886C80.821 8.0022 81.6044 6.62353 82.5861 5.43286C83.5679 4.2422 84.7586 3.29175 86.1581 2.58153C87.5786 1.85042 89.0617 1.48486 90.6075 1.48486C91.3386 1.48486 91.9966 1.57886 92.5815 1.76686C94.0228 0.805972 95.5164 0.325528 97.0621 0.325528C97.835 0.325528 98.5453 0.440417 99.1928 0.670196C99.8613 0.879084 100.352 1.1402 100.665 1.45353C100.498 2.24731 100.269 2.92619 99.9761 3.49019L99.8508 3.77219C98.869 3.04108 97.8141 2.67553 96.6861 2.67553C96.0177 2.67553 95.3701 2.80086 94.7435 3.05153C95.7253 4.0542 96.2161 5.50597 96.2161 7.40686C96.2161 9.28686 95.7253 11.0206 94.7435 12.6082C93.7617 14.1958 92.4979 14.9895 90.9521 14.9895C89.9077 14.9895 89.0826 14.5926 88.4768 13.7989C87.871 12.9842 87.5681 11.898 87.5681 10.5402C87.5681 8.22153 88.4559 6.00731 90.2315 3.89753C88.8528 4.04375 87.7248 5.00464 86.8475 6.7802C85.991 8.53486 85.5628 10.5715 85.5628 12.8902C85.5628 15.2089 85.8553 16.8069 86.4401 17.6842C87.0459 18.5615 87.7353 19.0002 88.5081 19.0002C89.3019 19.0002 90.0644 18.7286 90.7955 18.1855C91.5475 17.6215 92.1741 16.88 92.6755 15.9609L94.9628 16.4309C94.3779 20.8802 93.323 24.3895 91.7981 26.9589C92.1533 27.1469 92.7695 27.4706 93.6468 27.9302C94.5241 28.4106 95.1926 28.7658 95.6521 28.9955C96.1326 29.2253 96.7384 29.4969 97.4695 29.8102C98.8273 30.3951 100.143 30.6875 101.417 30.6875L103.078 30.5935C103.705 31.3038 104.164 31.9931 104.457 32.6615C104.06 33.4135 103.402 34.082 102.483 34.6669C101.564 35.2726 100.551 35.5755 99.4435 35.5755ZM90.9208 12.6395C91.6101 12.6395 92.1637 12.1173 92.5815 11.0729C92.9993 10.0284 93.2081 8.8482 93.2081 7.53219C93.2081 6.21619 92.9261 5.24486 92.3621 4.6182C91.5684 5.39108 90.9313 6.3102 90.4508 7.37553C89.9913 8.41997 89.7615 9.43308 89.7615 10.4149C89.7615 11.898 90.1479 12.6395 90.9208 12.6395ZM84.8735 28.6195C85.7299 28.6195 86.4506 28.1495 87.0355 27.2095C86.4715 26.8962 85.9284 26.7395 85.4061 26.7395C84.9048 26.7395 84.5079 26.844 84.2155 27.0529C83.9439 27.2618 83.8081 27.502 83.8081 27.7735C83.8081 28.0451 83.9126 28.254 84.1215 28.4002C84.3513 28.5464 84.6019 28.6195 84.8735 28.6195ZM105.041 11.9502C105.041 12.8693 104.78 14.3002 104.257 16.2429C103.735 18.1646 103.474 19.418 103.474 20.0029C103.474 20.5878 103.589 20.8802 103.819 20.8802C104.048 20.8802 104.466 20.7758 105.072 20.5669L105.354 20.4415L105.918 22.0082C105.208 22.5513 104.32 23.0318 103.255 23.4495C102.21 23.8673 101.26 24.0762 100.403 24.0762C99.5469 24.0762 98.868 23.836 98.3666 23.3555C97.8862 22.8751 97.646 22.1858 97.646 21.2875C97.646 20.3684 97.8966 18.9793 98.398 17.1202C98.9202 15.2402 99.1813 14.0495 99.1813 13.5482C99.1813 12.7753 98.9098 12.0442 98.3666 11.3549L98.116 11.0102L98.21 10.4775C99.2962 10.1433 101.406 9.9762 104.539 9.9762C104.874 10.3522 105.041 11.0102 105.041 11.9502ZM102.691 7.53219C101.751 7.53219 101.009 7.28153 100.466 6.7802C99.9438 6.27886 99.6826 5.64175 99.6826 4.86886C99.6826 4.07508 100.006 3.41708 100.654 2.89486C101.322 2.35175 102.127 2.08019 103.067 2.08019C104.007 2.08019 104.738 2.29953 105.26 2.7382C105.782 3.17686 106.043 3.79308 106.043 4.58686C106.043 5.38064 105.72 6.06997 105.072 6.65486C104.445 7.23975 103.652 7.53219 102.691 7.53219ZM114.811 22.3529C113.348 23.1466 112.043 23.5435 110.894 23.5435C109.766 23.5435 108.815 23.0944 108.043 22.1962C107.291 21.2771 106.915 19.9193 106.915 18.1229C106.915 15.7206 107.562 13.7362 108.857 12.1695C110.173 10.6029 111.74 9.81953 113.557 9.81953C114.435 9.81953 115.427 10.0598 116.534 10.5402C117.829 10.1433 119.302 9.94486 120.952 9.94486H121.485C121.589 10.1538 121.641 10.6238 121.641 11.3549C121.641 12.0651 121.505 13.4751 121.234 15.5849C120.983 17.6946 120.701 19.4598 120.388 20.8802C119.719 23.9091 118.675 26.3009 117.255 28.0555C115.855 29.8311 114.09 30.7189 111.959 30.7189C110.915 30.7189 110.058 30.4891 109.39 30.0295C108.742 29.57 108.419 28.9851 108.419 28.2749C108.419 27.5646 108.586 26.9693 108.92 26.4889C109.275 26.0293 109.776 25.6429 110.424 25.3295C111.531 24.7864 112.889 24.3373 114.497 23.9822L114.811 22.3529ZM114.999 12.3575C114.267 12.3575 113.703 12.9842 113.307 14.2375C112.931 15.4909 112.743 16.8486 112.743 18.3109C112.743 19.7731 113.087 20.5042 113.777 20.5042C114.069 20.5042 114.497 20.358 115.061 20.0655C115.228 18.3735 115.5 15.8669 115.876 12.5455C115.563 12.4202 115.27 12.3575 114.999 12.3575ZM111.427 28.4002C111.823 28.4002 112.273 28.2018 112.774 27.8049C113.296 27.408 113.724 26.7604 114.059 25.8622C111.782 26.2591 110.643 26.8649 110.643 27.6795C110.685 28.16 110.946 28.4002 111.427 28.4002ZM133.295 19.4702C133.295 20.7653 132.689 21.862 131.478 22.7602C130.287 23.6375 128.887 24.0762 127.279 24.0762C125.671 24.0762 124.344 23.8046 123.3 23.2615C122.276 22.7184 121.764 22.2066 121.764 21.7262C121.764 21.2249 122.078 20.5982 122.704 19.8462C123.352 19.0733 124.01 18.6242 124.678 18.4989C125.639 19.0211 126.506 20.1804 127.279 21.9769C127.885 21.9769 128.188 21.7784 128.188 21.3815C128.188 21.0891 128.104 20.8175 127.937 20.5669C127.77 20.3162 127.645 20.1178 127.561 19.9715C127.477 19.8253 127.331 19.6269 127.122 19.3762C126.913 19.1046 126.757 18.9062 126.652 18.7809C126.13 18.1542 125.66 17.5798 125.242 17.0575C124.24 15.8042 123.738 14.7075 123.738 13.7675C123.738 12.8066 124.041 12.0233 124.647 11.4175C125.691 10.3522 127.227 9.81953 129.253 9.81953C130.527 9.81953 131.54 10.0702 132.292 10.5715C133.044 11.052 133.42 11.7831 133.42 12.7649C133.42 13.7258 132.846 14.8329 131.697 16.0862C132.762 17.3186 133.295 18.4466 133.295 19.4702ZM131.196 13.7362C131.446 13.3393 131.572 12.9842 131.572 12.6709C131.572 12.3575 131.436 12.1173 131.164 11.9502C130.893 11.7831 130.569 11.6995 130.193 11.6995C129.817 11.6995 129.525 11.7935 129.316 11.9815C129.128 12.1486 129.034 12.3784 129.034 12.6709C129.034 12.9633 129.483 13.6109 130.381 14.6135C130.673 14.4046 130.945 14.1122 131.196 13.7362Z" fill="white"/>
</svg>
